<svg width="33" height="32" viewBox="0 0 33 32" fill="none" xmlns="http://www.w3.org/2000/svg">
<g id="Group 4576">
<circle id="Ellipse 1" cx="16.2275" cy="16" r="16" fill="#0A82EB"/>
<g id="Group 4522">
<path id="Vector" d="M22.3779 15.9989C22.3779 14.9241 23.186 14.039 24.2275 13.9167C24.037 13.1784 23.7442 12.472 23.3572 11.8153C22.5344 12.4646 21.3364 12.4105 20.5765 11.6507C19.8167 10.8909 19.7625 9.69304 20.4119 8.87024C19.7544 8.4833 19.0486 8.1905 18.3103 8C18.188 9.04147 17.3021 9.84944 16.2279 9.84944C15.1537 9.84944 14.2678 9.04147 14.1455 8C13.4072 8.1905 12.7007 8.4833 12.0439 8.87024C12.694 9.69304 12.6392 10.8909 11.8793 11.6507C11.1194 12.4105 9.92221 12.4646 9.0986 11.8153C8.71162 12.472 8.4188 13.1784 8.22754 13.9167C9.2691 14.0398 10.0771 14.9249 10.0771 15.9989C10.0771 17.073 9.2691 17.9588 8.22754 18.0811C8.4188 18.8194 8.71088 19.5259 9.0986 20.1833C9.92146 19.5333 11.1194 19.5881 11.8793 20.3479C12.6392 21.1077 12.6933 22.3056 12.0439 23.1284C12.7014 23.5153 13.4072 23.8081 14.1455 23.9994C14.2678 22.9579 15.153 22.1492 16.2279 22.1492C17.3028 22.1492 18.188 22.9571 18.3103 23.9994C19.0486 23.8081 19.7551 23.5161 20.4119 23.1284C19.7618 22.3056 19.8167 21.1077 20.5765 20.3479C21.3364 19.5881 22.5336 19.534 23.3572 20.1833C23.7442 19.5266 24.037 18.8202 24.2275 18.0811C23.186 17.9588 22.3779 17.0738 22.3779 15.9989Z" fill="#0A82EB" stroke="white" stroke-width="1.14" stroke-linecap="round" stroke-linejoin="round"/>
<path id="Vector_2" d="M16.237 18.3936C17.5598 18.3888 18.6283 17.3126 18.6234 15.9899C18.6186 14.6671 17.5423 13.5988 16.2194 13.6036C14.8966 13.6085 13.8281 14.6847 13.833 16.0074C13.8378 17.3301 14.9141 18.3985 16.237 18.3936Z" fill="#0A82EB" stroke="white" stroke-width="1.14" stroke-linecap="round" stroke-linejoin="round"/>
</g>
</g>
</svg>
