<svg width="16" height="16" viewBox="0 0 16 16" fill="none" xmlns="http://www.w3.org/2000/svg">
<g id="Group 4551">
<path id="Vector" d="M14.0667 2.8667H1.93333C1.41787 2.8667 1 3.28456 1 3.80003V14.0667C1 14.5821 1.41787 15 1.93333 15H14.0667C14.5821 15 15 14.5821 15 14.0667V3.80003C15 3.28456 14.5821 2.8667 14.0667 2.8667Z" stroke="#4F4F4F" stroke-width="1.14" stroke-linecap="round" stroke-linejoin="round"/>
<path id="Vector_2" d="M1 6.6001H15" stroke="#4F4F4F" stroke-width="1.14" stroke-linecap="round" stroke-linejoin="round"/>
<path id="Vector_3" d="M4.73328 4.26667V1" stroke="#4F4F4F" stroke-width="1.14" stroke-linecap="round" stroke-linejoin="round"/>
<path id="Vector_4" d="M11.2667 4.26667V1" stroke="#4F4F4F" stroke-width="1.14" stroke-linecap="round" stroke-linejoin="round"/>
<path id="Vector_5" d="M4.0335 9.40002C3.90464 9.40002 3.80017 9.29555 3.80017 9.16668C3.80017 9.03782 3.90464 8.93335 4.0335 8.93335" stroke="#4F4F4F" stroke-width="1.14"/>
<path id="Vector_6" d="M4.03345 9.40002C4.16232 9.40002 4.26678 9.29555 4.26678 9.16668C4.26678 9.03782 4.16232 8.93335 4.03345 8.93335" stroke="#4F4F4F" stroke-width="1.14"/>
<path id="Vector_7" d="M4.0335 12.6666C3.90464 12.6666 3.80017 12.5621 3.80017 12.4333C3.80017 12.3044 3.90464 12.2 4.0335 12.2" stroke="#4F4F4F" stroke-width="1.14"/>
<path id="Vector_8" d="M4.03345 12.6666C4.16232 12.6666 4.26678 12.5621 4.26678 12.4333C4.26678 12.3044 4.16232 12.2 4.03345 12.2" stroke="#4F4F4F" stroke-width="1.14"/>
<path id="Vector_9" d="M8.00006 9.40002C7.87119 9.40002 7.76672 9.29555 7.76672 9.16668C7.76672 9.03782 7.87119 8.93335 8.00006 8.93335" stroke="#4F4F4F" stroke-width="1.14"/>
<path id="Vector_10" d="M8 9.40002C8.12886 9.40002 8.23333 9.29555 8.23333 9.16668C8.23333 9.03782 8.12886 8.93335 8 8.93335" stroke="#4F4F4F" stroke-width="1.14"/>
<path id="Vector_11" d="M8.00006 12.6666C7.87119 12.6666 7.76672 12.5621 7.76672 12.4333C7.76672 12.3044 7.87119 12.2 8.00006 12.2" stroke="#4F4F4F" stroke-width="1.14"/>
<path id="Vector_12" d="M8 12.6666C8.12886 12.6666 8.23333 12.5621 8.23333 12.4333C8.23333 12.3044 8.12886 12.2 8 12.2" stroke="#4F4F4F" stroke-width="1.14"/>
<path id="Vector_13" d="M11.9666 9.40002C11.8377 9.40002 11.7333 9.29555 11.7333 9.16668C11.7333 9.03782 11.8377 8.93335 11.9666 8.93335" stroke="#4F4F4F" stroke-width="1.14"/>
<path id="Vector_14" d="M11.9666 9.40002C12.0954 9.40002 12.1999 9.29555 12.1999 9.16668C12.1999 9.03782 12.0954 8.93335 11.9666 8.93335" stroke="#4F4F4F" stroke-width="1.14"/>
<path id="Vector_15" d="M11.9666 12.6666C11.8377 12.6666 11.7333 12.5621 11.7333 12.4333C11.7333 12.3044 11.8377 12.2 11.9666 12.2" stroke="#4F4F4F" stroke-width="1.14"/>
<path id="Vector_16" d="M11.9666 12.6666C12.0954 12.6666 12.1999 12.5621 12.1999 12.4333C12.1999 12.3044 12.0954 12.2 11.9666 12.2" stroke="#4F4F4F" stroke-width="1.14"/>
</g>
</svg>
