<svg width="16" height="15" viewBox="0 0 16 15" fill="none" xmlns="http://www.w3.org/2000/svg">
<g id="Group 4576">
<path id="Vector" d="M7.1712 14.3458C5.43072 14.3458 3.76152 13.6545 2.53082 12.4237C1.30011 11.193 0.608704 9.52383 0.608704 7.78333C0.608704 6.04284 1.30011 4.37364 2.53082 3.14294C3.76152 1.91223 5.43072 1.22083 7.1712 1.22083" stroke="#454545" stroke-width="1.14" stroke-linecap="round" stroke-linejoin="round"/>
<path id="Vector_2" d="M7.1712 1.22083C7.1712 1.22083 3.88995 3.09583 3.88995 7.78333C3.88995 12.4708 7.1712 14.3458 7.1712 14.3458" stroke="#454545" stroke-width="1.14" stroke-linecap="round" stroke-linejoin="round"/>
<path id="Vector_3" d="M7.1712 4.97083H1.24057" stroke="#454545" stroke-width="1.14" stroke-linecap="round" stroke-linejoin="round"/>
<path id="Vector_4" d="M7.1712 10.5958H1.24057" stroke="#454545" stroke-width="1.14" stroke-linecap="round" stroke-linejoin="round"/>
<path id="Vector_5" d="M9.9837 3.09583C9.9837 3.59311 10.1813 4.07002 10.5329 4.42165C10.8845 4.77328 11.3615 4.97083 11.8587 4.97083C12.356 4.97083 12.8329 4.77328 13.1845 4.42165C13.5361 4.07002 13.7337 3.59311 13.7337 3.09583C13.7337 2.59854 13.5361 2.12163 13.1845 1.77C12.8329 1.41837 12.356 1.22083 11.8587 1.22083C11.3615 1.22083 10.8845 1.41837 10.5329 1.77C10.1813 2.12163 9.9837 2.59854 9.9837 3.09583Z" stroke="#454545" stroke-width="1.14" stroke-linecap="round" stroke-linejoin="round"/>
<path id="Vector_6" d="M13.49 6.43708L11.8587 8.72082L10.2275 6.43708C9.86264 6.69595 9.56508 7.03826 9.35964 7.43557C9.15414 7.83282 9.04664 8.27351 9.0462 8.72082V10.5958C9.0462 10.8444 9.14495 11.0829 9.32077 11.2588C9.49658 11.4346 9.73508 11.5333 9.9837 11.5333H10.4525V13.4083C10.4525 13.6569 10.5512 13.8954 10.727 14.0713C10.9028 14.2471 11.1413 14.3458 11.39 14.3458H12.3275C12.5761 14.3458 12.8146 14.2471 12.9904 14.0713C13.1662 13.8954 13.265 13.6569 13.265 13.4083V11.5333H13.7337C13.9823 11.5333 14.2208 11.4346 14.3966 11.2588C14.5725 11.0829 14.6712 10.8444 14.6712 10.5958V8.72082C14.6708 8.27351 14.5633 7.83282 14.3578 7.43557C14.1523 7.03826 13.8548 6.69595 13.49 6.43708Z" stroke="#454545" stroke-width="1.14" stroke-linecap="round" stroke-linejoin="round"/>
</g>
</svg>
