<svg width="70" height="24" viewBox="0 0 70 24" fill="none" xmlns="http://www.w3.org/2000/svg">
<g id="logo">
<g id="Group">
<g id="Group_2">
<path id="Vector" d="M37.1365 23.4018H41.8441L49.167 18.6046L53.8746 23.4018H67.4744L55.3566 11.2444L37.1365 23.4018Z" fill="white"/>
</g>
<g id="Group_3">
<path id="Vector_2" d="M69.9999 0.598145H65.2051L53.0002 8.81264L48.2054 4.01538H34.6929L46.7234 16.1728L69.9999 0.598145Z" fill="white"/>
</g>
</g>
<g id="Group_4">
<g id="Group_5">
<path id="Vector_3" d="M7.32294 16.0416V23.4018H0V4.01562H12.728C18.8304 4.01562 21.7073 6.44712 21.7073 9.40434C21.7073 12.0987 19.615 13.4787 17.8715 14.0045C19.5278 14.4645 21.1842 15.7131 21.1842 18.9989V19.7875C21.1842 20.9704 21.2714 22.5475 21.5329 23.4018H14.3843C13.9485 22.5475 13.8613 21.1675 13.8613 19.196V18.6703C13.8613 17.0274 13.3382 16.1074 10.0255 16.1074H7.32294V16.0416ZM7.32294 12.0987H10.8101C13.3382 12.0987 14.21 11.3101 14.21 9.99578C14.21 8.68146 13.1639 7.95858 10.8101 7.95858H7.32294V12.0987Z" fill="white"/>
<path id="Vector_4" d="M33.4678 4.01562V23.4018H24.5757V4.01562H33.4678Z" fill="white"/>
</g>
</g>
</g>
</svg>
