<svg version="1.2" xmlns="http://www.w3.org/2000/svg" viewBox="0 0 3 20" width="3" height="20">
	<title>threeDot-svg</title>
	<style>
		.s0 { fill: #4f4f4f } 
	</style>
	<path id="Ellipse 1131" class="s0" d="m1.5 11.5c-0.8 0-1.5-0.7-1.5-1.5 0-0.8 0.7-1.5 1.5-1.5 0.8 0 1.5 0.7 1.5 1.5 0 0.8-0.7 1.5-1.5 1.5z"/>
	<path id="Ellipse 1131 copy 2" class="s0" d="m1.5 5.5c-0.8 0-1.5-0.7-1.5-1.5 0-0.8 0.7-1.5 1.5-1.5 0.8 0 1.5 0.7 1.5 1.5 0 0.8-0.7 1.5-1.5 1.5z"/>
	<path id="Ellipse 1131 copy" class="s0" d="m1.5 17.5c-0.8 0-1.5-0.7-1.5-1.5 0-0.8 0.7-1.5 1.5-1.5 0.8 0 1.5 0.7 1.5 1.5 0 0.8-0.7 1.5-1.5 1.5z"/>
</svg>