<svg width="18" height="18" viewBox="0 0 18 18" fill="none" xmlns="http://www.w3.org/2000/svg">
<g id="Group 4565">
<path id="Vector" d="M14.3333 10.5999H15.4L15.72 8.67992H17L16.04 5.79994C15.72 4.83995 15.3239 4.19995 14.44 4.19995C13.5561 4.19995 13.16 4.83995 12.84 5.79994L12.6501 6.36883" stroke="#454545" stroke-width="1.14" stroke-linecap="round" stroke-linejoin="round"/>
<path id="Vector_2" d="M13.1599 2.27999C13.1599 2.44809 13.193 2.61454 13.2573 2.76983C13.3217 2.92513 13.4159 3.06623 13.5348 3.18509C13.6536 3.30395 13.7948 3.39823 13.95 3.46256C14.1053 3.52688 14.2718 3.55999 14.4399 3.55999C14.608 3.55999 14.7744 3.52688 14.9297 3.46256C15.085 3.39823 15.2261 3.30395 15.345 3.18509C15.4638 3.06623 15.5581 2.92513 15.6225 2.76983C15.6868 2.61454 15.7199 2.44809 15.7199 2.27999C15.7199 2.1119 15.6868 1.94546 15.6225 1.79016C15.5581 1.63487 15.4638 1.49377 15.345 1.3749C15.2261 1.25604 15.085 1.16176 14.9297 1.09744C14.7744 1.03311 14.608 1 14.4399 1C14.2718 1 14.1053 1.03311 13.95 1.09744C13.7948 1.16176 13.6536 1.25604 13.5348 1.3749C13.4159 1.49377 13.3217 1.63487 13.2573 1.79016C13.193 1.94546 13.1599 2.1119 13.1599 2.27999Z" stroke="#454545" stroke-width="1.14" stroke-linecap="round" stroke-linejoin="round"/>
<path id="Vector_3" d="M3.66666 10.5999H2.59999L2.27999 8.67992H1L1.96 5.79994C2.27999 4.83995 2.67608 4.19995 3.55999 4.19995C4.4439 4.19995 4.83998 4.83995 5.15998 5.79994L5.34985 6.36883" stroke="#454545" stroke-width="1.14" stroke-linecap="round" stroke-linejoin="round"/>
<path id="Vector_4" d="M2.28003 2.27999C2.28003 2.44809 2.31314 2.61454 2.37747 2.76983C2.44178 2.92513 2.53607 3.06623 2.65493 3.18509C2.77379 3.30395 2.91489 3.39823 3.07019 3.46256C3.22548 3.52688 3.39193 3.55999 3.56002 3.55999C3.72812 3.55999 3.89456 3.52688 4.04986 3.46256C4.20516 3.39823 4.34626 3.30395 4.46512 3.18509C4.58398 3.06623 4.67826 2.92513 4.74258 2.76983C4.80691 2.61454 4.84002 2.44809 4.84002 2.27999C4.84002 1.94052 4.70516 1.61494 4.46512 1.3749C4.22507 1.13485 3.8995 1 3.56002 1C3.22055 1 2.89497 1.13485 2.65493 1.3749C2.41488 1.61494 2.28003 1.94052 2.28003 2.27999Z" stroke="#454545" stroke-width="1.14" stroke-linecap="round" stroke-linejoin="round"/>
<path id="Vector_5" d="M7.12476 4.36591C7.12476 4.86325 7.32232 5.34021 7.67399 5.69188C8.02563 6.04355 8.50264 6.24111 8.99992 6.24111C9.49727 6.24111 9.97421 6.04355 10.3259 5.69188C10.6776 5.34021 10.8751 4.86325 10.8751 4.36591C10.8751 3.86859 10.6776 3.39163 10.3259 3.03995C9.97421 2.68829 9.49727 2.49072 8.99992 2.49072C8.50264 2.49072 8.02563 2.68829 7.67399 3.03995C7.32232 3.39163 7.12476 3.86859 7.12476 4.36591Z" stroke="#454545" stroke-width="1.14" stroke-linecap="round" stroke-linejoin="round"/>
<path id="Vector_6" d="M12.2818 10.4612C12.2818 9.59085 11.936 8.75608 11.3206 8.14068C10.7051 7.52522 9.87041 7.17944 9.00002 7.17944C8.12962 7.17944 7.29492 7.52522 6.67947 8.14068C6.06402 8.75608 5.71826 9.59085 5.71826 10.4612V11.8678H7.12483L7.59345 16.5562H10.4066L10.8752 11.8678H12.2818V10.4612Z" stroke="#454545" stroke-width="1.14" stroke-linecap="round" stroke-linejoin="round"/>
</g>
</svg>
